# xmcd CD database file
#
# Track frame offsets:
#	150
#	22217
#	43875
#
# Disc length: 876 seconds
#
# Revision: 0
# Processed by: cddbd v1.5.1PL2 Copyright (c) Steve Scherf et al.
# Submitted via: CDex 1.51
#
DISCID=25036a03
DTITLE=工藤静香 - 優
DYEAR=1900
DGENRE=JPop
TTITLE0=優
TTITLE1=ルナ〜月の女神
TTITLE2=優（オリジナル・カラオケ
EXTD=
EXTT0=
EXTT1=
EXTT2=
PLAYORDER=
